<?xml version="1.0" encoding="UTF-8" standalone="no"?>
<!DOCTYPE svg PUBLIC "-//W3C//DTD SVG 1.1//EN"
 "http://www.w3.org/Graphics/SVG/1.1/DTD/svg11.dtd">
<!-- Generated by graphviz version 2.42.4 (0)
 -->
<!-- Title: G Pages: 1 -->
<svg width="1561pt" height="252pt"
 viewBox="0.00 0.00 1561.00 252.00" xmlns="http://www.w3.org/2000/svg" xmlns:xlink="http://www.w3.org/1999/xlink">
<g id="graph0" class="graph" transform="scale(1 1) rotate(0) translate(4 248)">
<title>G</title>
<polygon fill="white" stroke="transparent" points="-4,4 -4,-248 1557,-248 1557,4 -4,4"/>
<!-- data.aws_ami.amazon_linux -->
<g id="node1" class="node">
<title>data.aws_ami.amazon_linux</title>
<polygon fill="none" stroke="black" points="1114.5,-244 903.5,-244 903.5,-208 1114.5,-208 1114.5,-244"/>
<text text-anchor="middle" x="1009" y="-222.3" font-family="sans-serif" font-size="14.00">data.aws_ami.amazon_linux</text>
</g>
<!-- data.aws_subnets.default -->
<g id="node2" class="node">
<title>data.aws_subnets.default</title>
<polygon fill="none" stroke="black" points="1349,-36 1155,-36 1155,0 1349,0 1349,-36"/>
<text text-anchor="middle" x="1252" y="-14.3" font-family="sans-serif" font-size="14.00">data.aws_subnets.default</text>
</g>
<!-- data.aws_vpc.default -->
<g id="node3" class="node">
<title>data.aws_vpc.default</title>
<polygon fill="none" stroke="black" points="1553,-90 1389,-90 1389,-54 1553,-54 1553,-90"/>
<text text-anchor="middle" x="1471" y="-68.3" font-family="sans-serif" font-size="14.00">data.aws_vpc.default</text>
</g>
<!-- data.aws_subnets.default&#45;&gt;data.aws_vpc.default -->
<g id="edge1" class="edge">
<title>data.aws_subnets.default&#45;&gt;data.aws_vpc.default</title>
<path fill="none" stroke="black" d="M1325.56,-36.06C1345.47,-41.01 1367.19,-46.42 1387.61,-51.5"/>
<polygon fill="black" stroke="black" points="1386.96,-54.94 1397.51,-53.96 1388.65,-48.15 1386.96,-54.94"/>
</g>
<!-- aws_autoscaling_group.asg_web_server -->
<g id="node4" class="node">
<title>aws_autoscaling_group.asg_web_server</title>
<polygon fill="none" stroke="black" points="582,-136 289,-136 289,-100 582,-100 582,-136"/>
<text text-anchor="middle" x="435.5" y="-114.3" font-family="sans-serif" font-size="14.00">aws_autoscaling_group.asg_web_server</text>
</g>
<!-- aws_autoscaling_group.asg_web_server&#45;&gt;data.aws_subnets.default -->
<g id="edge2" class="edge">
<title>aws_autoscaling_group.asg_web_server&#45;&gt;data.aws_subnets.default</title>
<path fill="none" stroke="black" d="M469.07,-99.86C504.49,-81.19 563.37,-53.15 618,-41 799.73,-0.6 1017.92,-3.57 1144.88,-10.22"/>
<polygon fill="black" stroke="black" points="1144.82,-13.72 1154.99,-10.77 1145.19,-6.73 1144.82,-13.72"/>
</g>
<!-- aws_launch_template.web_server -->
<g id="node6" class="node">
<title>aws_launch_template.web_server</title>
<polygon fill="none" stroke="black" points="867,-190 618,-190 618,-154 867,-154 867,-190"/>
<text text-anchor="middle" x="742.5" y="-168.3" font-family="sans-serif" font-size="14.00">aws_launch_template.web_server</text>
</g>
<!-- aws_autoscaling_group.asg_web_server&#45;&gt;aws_launch_template.web_server -->
<g id="edge3" class="edge">
<title>aws_autoscaling_group.asg_web_server&#45;&gt;aws_launch_template.web_server</title>
<path fill="none" stroke="black" d="M538.48,-136.06C567.73,-141.24 599.78,-146.91 629.59,-152.19"/>
<polygon fill="black" stroke="black" points="629.15,-155.66 639.61,-153.96 630.37,-148.77 629.15,-155.66"/>
</g>
<!-- aws_lb_target_group.web_tg -->
<g id="node9" class="node">
<title>aws_lb_target_group.web_tg</title>
<polygon fill="none" stroke="black" points="1115,-136 903,-136 903,-100 1115,-100 1115,-136"/>
<text text-anchor="middle" x="1009" y="-114.3" font-family="sans-serif" font-size="14.00">aws_lb_target_group.web_tg</text>
</g>
<!-- aws_autoscaling_group.asg_web_server&#45;&gt;aws_lb_target_group.web_tg -->
<g id="edge4" class="edge">
<title>aws_autoscaling_group.asg_web_server&#45;&gt;aws_lb_target_group.web_tg</title>
<path fill="none" stroke="black" d="M582.19,-118C678.52,-118 803.05,-118 892.53,-118"/>
<polygon fill="black" stroke="black" points="892.71,-121.5 902.71,-118 892.71,-114.5 892.71,-121.5"/>
</g>
<!-- aws_autoscaling_policy.cpu_target -->
<g id="node5" class="node">
<title>aws_autoscaling_policy.cpu_target</title>
<polygon fill="none" stroke="black" points="253,-136 0,-136 0,-100 253,-100 253,-136"/>
<text text-anchor="middle" x="126.5" y="-114.3" font-family="sans-serif" font-size="14.00">aws_autoscaling_policy.cpu_target</text>
</g>
<!-- aws_autoscaling_policy.cpu_target&#45;&gt;aws_autoscaling_group.asg_web_server -->
<g id="edge5" class="edge">
<title>aws_autoscaling_policy.cpu_target&#45;&gt;aws_autoscaling_group.asg_web_server</title>
<path fill="none" stroke="black" d="M253.25,-118C261.7,-118 270.27,-118 278.85,-118"/>
<polygon fill="black" stroke="black" points="278.91,-121.5 288.91,-118 278.91,-114.5 278.91,-121.5"/>
</g>
<!-- aws_launch_template.web_server&#45;&gt;data.aws_ami.amazon_linux -->
<g id="edge6" class="edge">
<title>aws_launch_template.web_server&#45;&gt;data.aws_ami.amazon_linux</title>
<path fill="none" stroke="black" d="M831.94,-190.06C856.87,-195.14 884.13,-200.71 909.6,-205.91"/>
<polygon fill="black" stroke="black" points="909.14,-209.39 919.64,-207.96 910.54,-202.53 909.14,-209.39"/>
</g>
<!-- aws_security_group.web_sg -->
<g id="node11" class="node">
<title>aws_security_group.web_sg</title>
<polygon fill="none" stroke="black" points="1113.5,-190 904.5,-190 904.5,-154 1113.5,-154 1113.5,-190"/>
<text text-anchor="middle" x="1009" y="-168.3" font-family="sans-serif" font-size="14.00">aws_security_group.web_sg</text>
</g>
<!-- aws_launch_template.web_server&#45;&gt;aws_security_group.web_sg -->
<g id="edge7" class="edge">
<title>aws_launch_template.web_server&#45;&gt;aws_security_group.web_sg</title>
<path fill="none" stroke="black" d="M867.23,-172C876.22,-172 885.26,-172 894.18,-172"/>
<polygon fill="black" stroke="black" points="894.2,-175.5 904.2,-172 894.2,-168.5 894.2,-175.5"/>
</g>
<!-- aws_lb.web_alb -->
<g id="node7" class="node">
<title>aws_lb.web_alb</title>
<polygon fill="none" stroke="black" points="1071,-82 947,-82 947,-46 1071,-46 1071,-82"/>
<text text-anchor="middle" x="1009" y="-60.3" font-family="sans-serif" font-size="14.00">aws_lb.web_alb</text>
</g>
<!-- aws_lb.web_alb&#45;&gt;data.aws_subnets.default -->
<g id="edge8" class="edge">
<title>aws_lb.web_alb&#45;&gt;data.aws_subnets.default</title>
<path fill="none" stroke="black" d="M1071.13,-52.33C1094.13,-47.94 1120.97,-42.82 1146.8,-37.89"/>
<polygon fill="black" stroke="black" points="1147.47,-41.32 1156.64,-36.01 1146.16,-34.45 1147.47,-41.32"/>
</g>
<!-- aws_security_group.alb_sg -->
<g id="node10" class="node">
<title>aws_security_group.alb_sg</title>
<polygon fill="none" stroke="black" points="1353,-90 1151,-90 1151,-54 1353,-54 1353,-90"/>
<text text-anchor="middle" x="1252" y="-68.3" font-family="sans-serif" font-size="14.00">aws_security_group.alb_sg</text>
</g>
<!-- aws_lb.web_alb&#45;&gt;aws_security_group.alb_sg -->
<g id="edge9" class="edge">
<title>aws_lb.web_alb&#45;&gt;aws_security_group.alb_sg</title>
<path fill="none" stroke="black" d="M1071.13,-66.03C1092.24,-66.73 1116.59,-67.54 1140.42,-68.33"/>
<polygon fill="black" stroke="black" points="1140.47,-71.83 1150.59,-68.67 1140.71,-64.84 1140.47,-71.83"/>
</g>
<!-- aws_lb_listener.http -->
<g id="node8" class="node">
<title>aws_lb_listener.http</title>
<polygon fill="none" stroke="black" points="819,-86 666,-86 666,-50 819,-50 819,-86"/>
<text text-anchor="middle" x="742.5" y="-64.3" font-family="sans-serif" font-size="14.00">aws_lb_listener.http</text>
</g>
<!-- aws_lb_listener.http&#45;&gt;aws_lb.web_alb -->
<g id="edge10" class="edge">
<title>aws_lb_listener.http&#45;&gt;aws_lb.web_alb</title>
<path fill="none" stroke="black" d="M819.3,-66.85C856.27,-66.29 900.5,-65.63 936.84,-65.08"/>
<polygon fill="black" stroke="black" points="936.92,-68.58 946.87,-64.92 936.81,-61.58 936.92,-68.58"/>
</g>
<!-- aws_lb_listener.http&#45;&gt;aws_lb_target_group.web_tg -->
<g id="edge11" class="edge">
<title>aws_lb_listener.http&#45;&gt;aws_lb_target_group.web_tg</title>
<path fill="none" stroke="black" d="M819.3,-82.33C845.13,-87.21 874.5,-92.76 902.24,-98.01"/>
<polygon fill="black" stroke="black" points="901.91,-101.51 912.38,-99.93 903.21,-94.63 901.91,-101.51"/>
</g>
<!-- aws_lb_target_group.web_tg&#45;&gt;data.aws_vpc.default -->
<g id="edge12" class="edge">
<title>aws_lb_target_group.web_tg&#45;&gt;data.aws_vpc.default</title>
<path fill="none" stroke="black" d="M1115.16,-116.83C1183.27,-114.93 1273.73,-110.26 1353,-99 1365.3,-97.25 1378.2,-94.86 1390.78,-92.21"/>
<polygon fill="black" stroke="black" points="1391.74,-95.58 1400.77,-90.04 1390.25,-88.74 1391.74,-95.58"/>
</g>
<!-- aws_security_group.alb_sg&#45;&gt;data.aws_vpc.default -->
<g id="edge13" class="edge">
<title>aws_security_group.alb_sg&#45;&gt;data.aws_vpc.default</title>
<path fill="none" stroke="black" d="M1353.24,-72C1361.69,-72 1370.2,-72 1378.58,-72"/>
<polygon fill="black" stroke="black" points="1378.71,-75.5 1388.71,-72 1378.71,-68.5 1378.71,-75.5"/>
</g>
<!-- aws_security_group.web_sg&#45;&gt;aws_security_group.alb_sg -->
<g id="edge14" class="edge">
<title>aws_security_group.web_sg&#45;&gt;aws_security_group.alb_sg</title>
<path fill="none" stroke="black" d="M1088.64,-154C1097.63,-151.29 1106.58,-148.29 1115,-145 1149.76,-131.43 1186.95,-111.02 1213.64,-95.23"/>
<polygon fill="black" stroke="black" points="1215.48,-98.21 1222.26,-90.07 1211.89,-92.2 1215.48,-98.21"/>
</g>
</g>
</svg>
