<?xml version="1.0" encoding="UTF-8" standalone="no"?>
<!DOCTYPE svg PUBLIC "-//W3C//DTD SVG 1.1//EN"
 "http://www.w3.org/Graphics/SVG/1.1/DTD/svg11.dtd">
<!-- Generated by graphviz version 2.42.4 (0)
 -->
<!-- Title: G Pages: 1 -->
<svg width="1230pt" height="206pt"
 viewBox="0.00 0.00 1230.00 206.00" xmlns="http://www.w3.org/2000/svg" xmlns:xlink="http://www.w3.org/1999/xlink">
<g id="graph0" class="graph" transform="scale(1 1) rotate(0) translate(4 202)">
<title>G</title>
<polygon fill="white" stroke="transparent" points="-4,4 -4,-202 1226,-202 1226,4 -4,4"/>
<!-- data.aws_ami.amazon_linux -->
<g id="node1" class="node">
<title>data.aws_ami.amazon_linux</title>
<polygon fill="none" stroke="black" points="783.5,-144 572.5,-144 572.5,-108 783.5,-108 783.5,-144"/>
<text text-anchor="middle" x="678" y="-122.3" font-family="sans-serif" font-size="14.00">data.aws_ami.amazon_linux</text>
</g>
<!-- data.aws_subnets.default -->
<g id="node2" class="node">
<title>data.aws_subnets.default</title>
<polygon fill="none" stroke="black" points="1018,-88 824,-88 824,-52 1018,-52 1018,-88"/>
<text text-anchor="middle" x="921" y="-66.3" font-family="sans-serif" font-size="14.00">data.aws_subnets.default</text>
</g>
<!-- data.aws_vpc.default -->
<g id="node3" class="node">
<title>data.aws_vpc.default</title>
<polygon fill="none" stroke="black" points="1222,-88 1058,-88 1058,-52 1222,-52 1222,-88"/>
<text text-anchor="middle" x="1140" y="-66.3" font-family="sans-serif" font-size="14.00">data.aws_vpc.default</text>
</g>
<!-- data.aws_subnets.default&#45;&gt;data.aws_vpc.default -->
<g id="edge1" class="edge">
<title>data.aws_subnets.default&#45;&gt;data.aws_vpc.default</title>
<path fill="none" stroke="black" d="M1018.13,-70C1027.97,-70 1037.95,-70 1047.74,-70"/>
<polygon fill="black" stroke="black" points="1047.86,-73.5 1057.86,-70 1047.86,-66.5 1047.86,-73.5"/>
</g>
<!-- aws_ec2_instance_state.web_server_state -->
<g id="node4" class="node">
<title>aws_ec2_instance_state.web_server_state</title>
<polygon fill="none" stroke="black" points="307,-144 0,-144 0,-108 307,-108 307,-144"/>
<text text-anchor="middle" x="153.5" y="-122.3" font-family="sans-serif" font-size="14.00">aws_ec2_instance_state.web_server_state</text>
</g>
<!-- aws_instance.web_server -->
<g id="node5" class="node">
<title>aws_instance.web_server</title>
<polygon fill="none" stroke="black" points="536,-144 343,-144 343,-108 536,-108 536,-144"/>
<text text-anchor="middle" x="439.5" y="-122.3" font-family="sans-serif" font-size="14.00">aws_instance.web_server</text>
</g>
<!-- aws_ec2_instance_state.web_server_state&#45;&gt;aws_instance.web_server -->
<g id="edge2" class="edge">
<title>aws_ec2_instance_state.web_server_state&#45;&gt;aws_instance.web_server</title>
<path fill="none" stroke="black" d="M307.31,-126C315.89,-126 324.43,-126 332.78,-126"/>
<polygon fill="black" stroke="black" points="332.88,-129.5 342.88,-126 332.88,-122.5 332.88,-129.5"/>
</g>
<!-- aws_instance.web_server&#45;&gt;data.aws_ami.amazon_linux -->
<g id="edge3" class="edge">
<title>aws_instance.web_server&#45;&gt;data.aws_ami.amazon_linux</title>
<path fill="none" stroke="black" d="M536.01,-126C544.58,-126 553.32,-126 562.03,-126"/>
<polygon fill="black" stroke="black" points="562.23,-129.5 572.23,-126 562.23,-122.5 562.23,-129.5"/>
</g>
<!-- aws_security_group.web_sg -->
<g id="node11" class="node">
<title>aws_security_group.web_sg</title>
<polygon fill="none" stroke="black" points="782.5,-198 573.5,-198 573.5,-162 782.5,-162 782.5,-198"/>
<text text-anchor="middle" x="678" y="-176.3" font-family="sans-serif" font-size="14.00">aws_security_group.web_sg</text>
</g>
<!-- aws_instance.web_server&#45;&gt;aws_security_group.web_sg -->
<g id="edge4" class="edge">
<title>aws_instance.web_server&#45;&gt;aws_security_group.web_sg</title>
<path fill="none" stroke="black" d="M519.58,-144.06C541.57,-149.08 565.6,-154.56 588.11,-159.7"/>
<polygon fill="black" stroke="black" points="587.47,-163.15 597.99,-161.96 589.02,-156.32 587.47,-163.15"/>
</g>
<!-- aws_lb.web_alb -->
<g id="node6" class="node">
<title>aws_lb.web_alb</title>
<polygon fill="none" stroke="black" points="740,-90 616,-90 616,-54 740,-54 740,-90"/>
<text text-anchor="middle" x="678" y="-68.3" font-family="sans-serif" font-size="14.00">aws_lb.web_alb</text>
</g>
<!-- aws_lb.web_alb&#45;&gt;data.aws_subnets.default -->
<g id="edge5" class="edge">
<title>aws_lb.web_alb&#45;&gt;data.aws_subnets.default</title>
<path fill="none" stroke="black" d="M740.13,-71.49C762.43,-71.31 788.36,-71.09 813.46,-70.88"/>
<polygon fill="black" stroke="black" points="813.81,-74.38 823.78,-70.8 813.75,-67.38 813.81,-74.38"/>
</g>
<!-- aws_security_group.alb_sg -->
<g id="node10" class="node">
<title>aws_security_group.alb_sg</title>
<polygon fill="none" stroke="black" points="1022,-142 820,-142 820,-106 1022,-106 1022,-142"/>
<text text-anchor="middle" x="921" y="-120.3" font-family="sans-serif" font-size="14.00">aws_security_group.alb_sg</text>
</g>
<!-- aws_lb.web_alb&#45;&gt;aws_security_group.alb_sg -->
<g id="edge6" class="edge">
<title>aws_lb.web_alb&#45;&gt;aws_security_group.alb_sg</title>
<path fill="none" stroke="black" d="M740.13,-85.19C766.2,-90.81 797.21,-97.51 826.08,-103.74"/>
<polygon fill="black" stroke="black" points="825.68,-107.23 836.2,-105.92 827.16,-100.39 825.68,-107.23"/>
</g>
<!-- aws_lb_listener.http -->
<g id="node7" class="node">
<title>aws_lb_listener.http</title>
<polygon fill="none" stroke="black" points="516,-86 363,-86 363,-50 516,-50 516,-86"/>
<text text-anchor="middle" x="439.5" y="-64.3" font-family="sans-serif" font-size="14.00">aws_lb_listener.http</text>
</g>
<!-- aws_lb_listener.http&#45;&gt;aws_lb.web_alb -->
<g id="edge7" class="edge">
<title>aws_lb_listener.http&#45;&gt;aws_lb.web_alb</title>
<path fill="none" stroke="black" d="M516.31,-69.28C544.94,-69.77 577.41,-70.32 605.63,-70.79"/>
<polygon fill="black" stroke="black" points="605.76,-74.3 615.82,-70.97 605.88,-67.3 605.76,-74.3"/>
</g>
<!-- aws_lb_target_group.web_tg -->
<g id="node8" class="node">
<title>aws_lb_target_group.web_tg</title>
<polygon fill="none" stroke="black" points="784,-36 572,-36 572,0 784,0 784,-36"/>
<text text-anchor="middle" x="678" y="-14.3" font-family="sans-serif" font-size="14.00">aws_lb_target_group.web_tg</text>
</g>
<!-- aws_lb_listener.http&#45;&gt;aws_lb_target_group.web_tg -->
<g id="edge8" class="edge">
<title>aws_lb_listener.http&#45;&gt;aws_lb_target_group.web_tg</title>
<path fill="none" stroke="black" d="M516.31,-51.97C537.16,-47.56 560.05,-42.73 581.84,-38.12"/>
<polygon fill="black" stroke="black" points="582.71,-41.51 591.77,-36.02 581.26,-34.66 582.71,-41.51"/>
</g>
<!-- aws_lb_target_group.web_tg&#45;&gt;data.aws_vpc.default -->
<g id="edge9" class="edge">
<title>aws_lb_target_group.web_tg&#45;&gt;data.aws_vpc.default</title>
<path fill="none" stroke="black" d="M784.17,-21.47C852.28,-24.75 942.74,-31.04 1022,-43 1034.04,-44.82 1046.67,-47.21 1059,-49.82"/>
<polygon fill="black" stroke="black" points="1058.29,-53.25 1068.81,-51.95 1059.78,-46.41 1058.29,-53.25"/>
</g>
<!-- aws_lb_target_group_attachment.web -->
<g id="node9" class="node">
<title>aws_lb_target_group_attachment.web</title>
<polygon fill="none" stroke="black" points="292.5,-61 14.5,-61 14.5,-25 292.5,-25 292.5,-61"/>
<text text-anchor="middle" x="153.5" y="-39.3" font-family="sans-serif" font-size="14.00">aws_lb_target_group_attachment.web</text>
</g>
<!-- aws_lb_target_group_attachment.web&#45;&gt;aws_instance.web_server -->
<g id="edge10" class="edge">
<title>aws_lb_target_group_attachment.web&#45;&gt;aws_instance.web_server</title>
<path fill="none" stroke="black" d="M216.12,-61.01C260.44,-73.96 320.34,-91.47 366.81,-105.05"/>
<polygon fill="black" stroke="black" points="365.93,-108.44 376.51,-107.88 367.89,-101.72 365.93,-108.44"/>
</g>
<!-- aws_lb_target_group_attachment.web&#45;&gt;aws_lb_target_group.web_tg -->
<g id="edge11" class="edge">
<title>aws_lb_target_group_attachment.web&#45;&gt;aws_lb_target_group.web_tg</title>
<path fill="none" stroke="black" d="M292.81,-36.38C376.74,-32.37 482.61,-27.3 561.95,-23.5"/>
<polygon fill="black" stroke="black" points="562.16,-27 571.98,-23.02 561.83,-20.01 562.16,-27"/>
</g>
<!-- aws_security_group.alb_sg&#45;&gt;data.aws_vpc.default -->
<g id="edge12" class="edge">
<title>aws_security_group.alb_sg&#45;&gt;data.aws_vpc.default</title>
<path fill="none" stroke="black" d="M994.56,-105.94C1014.47,-100.99 1036.19,-95.58 1056.61,-90.5"/>
<polygon fill="black" stroke="black" points="1057.65,-93.85 1066.51,-88.04 1055.96,-87.06 1057.65,-93.85"/>
</g>
<!-- aws_security_group.web_sg&#45;&gt;aws_security_group.alb_sg -->
<g id="edge13" class="edge">
<title>aws_security_group.web_sg&#45;&gt;aws_security_group.alb_sg</title>
<path fill="none" stroke="black" d="M756.58,-161.97C780.75,-156.36 807.58,-150.12 832.39,-144.36"/>
<polygon fill="black" stroke="black" points="833.2,-147.76 842.15,-142.09 831.62,-140.94 833.2,-147.76"/>
</g>
</g>
</svg>
